<?xml version="1.0" encoding="UTF-8" standalone="no"?>
<!DOCTYPE svg PUBLIC "-//W3C//DTD SVG 1.1//EN"
 "http://www.w3.org/Graphics/SVG/1.1/DTD/svg11.dtd">
<!-- Generated by graphviz version 9.0.0 (20230911.1827)
 -->
<!-- Title: g Pages: 1 -->
<svg width="724pt" height="2643pt"
 viewBox="0.00 0.00 724.00 2642.50" xmlns="http://www.w3.org/2000/svg" xmlns:xlink="http://www.w3.org/1999/xlink">
<g id="graph0" class="graph" transform="scale(1 1) rotate(0) translate(4 2638.5)">
<title>g</title>
<polygon fill="white" stroke="none" points="-4,4 -4,-2638.5 720,-2638.5 720,4 -4,4"/>
<g id="clust1" class="cluster">
<title>cluster_Map_1</title>
<polygon fill="none" stroke="blue" stroke-dasharray="5,2" points="18,-836.5 18,-2626.5 708,-2626.5 708,-836.5 18,-836.5"/>
<text text-anchor="middle" x="363" y="-2609.2" font-family="Times,serif" font-size="14.00">Map 1</text>
<text text-anchor="middle" x="363" y="-2592.7" font-family="Times,serif" font-size="14.00"> (vectorized=true)</text>
</g>
<g id="clust2" class="cluster">
<title>cluster_Reducer_2</title>
<polygon fill="none" stroke="blue" stroke-dasharray="5,2" points="8,-8 8,-802 366,-802 366,-8 8,-8"/>
<text text-anchor="middle" x="187" y="-784.7" font-family="Times,serif" font-size="14.00">Reducer 2</text>
<text text-anchor="middle" x="187" y="-768.2" font-family="Times,serif" font-size="14.00"> (vectorized=true)</text>
</g>
<!-- TS_0 -->
<g id="TS_0" class="node">
<title>TS_0</title>
<polygon fill="none" stroke="black" points="229.5,-2548.5 229.5,-2570.5 496.5,-2570.5 496.5,-2548.5 229.5,-2548.5"/>
<text text-anchor="start" x="333" y="-2555.2" font-family="Times,serif" font-weight="bold" font-size="14.00">TableScan</text>
<polygon fill="none" stroke="black" points="229.5,-2524.5 229.5,-2546.5 323.5,-2546.5 323.5,-2524.5 229.5,-2524.5"/>
<text text-anchor="start" x="263" y="-2530.2" font-family="Times,serif" font-size="14.00">Size:</text>
<polygon fill="none" stroke="black" points="325.5,-2524.5 325.5,-2546.5 496.5,-2546.5 496.5,-2524.5 325.5,-2524.5"/>
<text text-anchor="start" x="393.75" y="-2530.2" font-family="Times,serif" font-size="14.00"> 6768 </text>
<polygon fill="none" stroke="black" points="229.5,-2500.5 229.5,-2522.5 323.5,-2522.5 323.5,-2500.5 229.5,-2500.5"/>
<text text-anchor="start" x="232.25" y="-2506.2" font-family="Times,serif" font-size="14.00">Expected Rows:</text>
<polygon fill="none" stroke="black" points="325.5,-2500.5 325.5,-2522.5 496.5,-2522.5 496.5,-2500.5 325.5,-2500.5"/>
<text text-anchor="start" x="400.5" y="-2506.2" font-family="Times,serif" font-size="14.00"> 18 </text>
<polygon fill="none" stroke="black" points="229.5,-2476.5 229.5,-2498.5 323.5,-2498.5 323.5,-2476.5 229.5,-2476.5"/>
<text text-anchor="start" x="262.25" y="-2482.2" font-family="Times,serif" font-size="14.00">alias:</text>
<polygon fill="none" stroke="black" points="325.5,-2476.5 325.5,-2498.5 496.5,-2498.5 496.5,-2476.5 325.5,-2476.5"/>
<text text-anchor="start" x="377.25" y="-2482.2" font-family="Times,serif" font-size="14.00">&quot;customers&quot;</text>
<polygon fill="none" stroke="black" points="229.5,-2435.5 229.5,-2474.5 323.5,-2474.5 323.5,-2435.5 229.5,-2435.5"/>
<text text-anchor="start" x="251.38" y="-2449.95" font-family="Times,serif" font-size="14.00">columns:</text>
<polygon fill="none" stroke="black" points="325.5,-2435.5 325.5,-2474.5 496.5,-2474.5 496.5,-2435.5 325.5,-2435.5"/>
<text text-anchor="start" x="328.12" y="-2458.2" font-family="Times,serif" font-size="14.00">[&quot;customer_id&quot;, &quot;first_name&quot;,</text>
<text text-anchor="start" x="375" y="-2441.7" font-family="Times,serif" font-size="14.00">&quot;last_name&quot;]</text>
<polygon fill="none" stroke="black" points="229.5,-2411.5 229.5,-2433.5 323.5,-2433.5 323.5,-2411.5 229.5,-2411.5"/>
<text text-anchor="start" x="251.38" y="-2417.2" font-family="Times,serif" font-size="14.00">database:</text>
<polygon fill="none" stroke="black" points="325.5,-2411.5 325.5,-2433.5 496.5,-2433.5 496.5,-2411.5 325.5,-2411.5"/>
<text text-anchor="start" x="386.25" y="-2417.2" font-family="Times,serif" font-size="14.00">&quot;default&quot;</text>
<polygon fill="none" stroke="black" points="229.5,-2370.5 229.5,-2409.5 323.5,-2409.5 323.5,-2370.5 229.5,-2370.5"/>
<text text-anchor="start" x="248.38" y="-2384.95" font-family="Times,serif" font-size="14.00">filterExpr:</text>
<polygon fill="none" stroke="black" points="325.5,-2370.5 325.5,-2409.5 496.5,-2409.5 496.5,-2370.5 325.5,-2370.5"/>
<text text-anchor="start" x="336.75" y="-2393.2" font-family="Times,serif" font-size="14.00">&quot;(customer_id = 2L) (type:</text>
<text text-anchor="start" x="384.38" y="-2376.7" font-family="Times,serif" font-size="14.00">boolean)&quot;</text>
<polygon fill="none" stroke="black" points="229.5,-2346.5 229.5,-2368.5 323.5,-2368.5 323.5,-2346.5 229.5,-2346.5"/>
<text text-anchor="start" x="261.5" y="-2352.2" font-family="Times,serif" font-size="14.00">table:</text>
<polygon fill="none" stroke="black" points="325.5,-2346.5 325.5,-2368.5 496.5,-2368.5 496.5,-2346.5 325.5,-2346.5"/>
<text text-anchor="start" x="377.25" y="-2352.2" font-family="Times,serif" font-size="14.00">&quot;customers&quot;</text>
<polygon fill="none" stroke="black" points="229.5,-2322.5 229.5,-2344.5 323.5,-2344.5 323.5,-2322.5 229.5,-2322.5"/>
<text text-anchor="start" x="238.62" y="-2328.2" font-family="Times,serif" font-size="14.00">isTempTable:</text>
<polygon fill="none" stroke="black" points="325.5,-2322.5 325.5,-2344.5 496.5,-2344.5 496.5,-2322.5 325.5,-2322.5"/>
<text text-anchor="start" x="392.25" y="-2328.2" font-family="Times,serif" font-size="14.00">&quot;false&quot;</text>
<polygon fill="none" stroke="black" points="229.5,-2298.5 229.5,-2320.5 323.5,-2320.5 323.5,-2298.5 229.5,-2298.5"/>
<text text-anchor="start" x="245" y="-2304.2" font-family="Times,serif" font-size="14.00">OperatorId:</text>
<polygon fill="none" stroke="black" points="325.5,-2298.5 325.5,-2320.5 496.5,-2320.5 496.5,-2298.5 325.5,-2298.5"/>
<text text-anchor="start" x="390.38" y="-2304.2" font-family="Times,serif" font-size="14.00">&quot;TS_0&quot;</text>
<polygon fill="none" stroke="black" points="226.5,-2295.5 226.5,-2573.5 499.5,-2573.5 499.5,-2295.5 226.5,-2295.5"/>
</g>
<!-- FIL_10 -->
<g id="FIL_10" class="node">
<title>FIL_10</title>
<polygon fill="none" stroke="black" points="238,-2225.5 238,-2247.5 488,-2247.5 488,-2225.5 238,-2225.5"/>
<text text-anchor="start" x="318" y="-2232.2" font-family="Times,serif" font-weight="bold" font-size="14.00">Filter Operator</text>
<polygon fill="none" stroke="black" points="238,-2201.5 238,-2223.5 332,-2223.5 332,-2201.5 238,-2201.5"/>
<text text-anchor="start" x="271.5" y="-2207.2" font-family="Times,serif" font-size="14.00">Size:</text>
<polygon fill="none" stroke="black" points="334,-2201.5 334,-2223.5 488,-2223.5 488,-2201.5 334,-2201.5"/>
<text text-anchor="start" x="393.75" y="-2207.2" font-family="Times,serif" font-size="14.00"> 2256 </text>
<polygon fill="none" stroke="black" points="238,-2177.5 238,-2199.5 332,-2199.5 332,-2177.5 238,-2177.5"/>
<text text-anchor="start" x="240.75" y="-2183.2" font-family="Times,serif" font-size="14.00">Expected Rows:</text>
<polygon fill="none" stroke="black" points="334,-2177.5 334,-2199.5 488,-2199.5 488,-2177.5 334,-2177.5"/>
<text text-anchor="start" x="403.88" y="-2183.2" font-family="Times,serif" font-size="14.00"> 6 </text>
<polygon fill="none" stroke="black" points="238,-2136.5 238,-2175.5 332,-2175.5 332,-2136.5 238,-2136.5"/>
<text text-anchor="start" x="258.38" y="-2150.95" font-family="Times,serif" font-size="14.00">predicate:</text>
<polygon fill="none" stroke="black" points="334,-2136.5 334,-2175.5 488,-2175.5 488,-2136.5 334,-2136.5"/>
<text text-anchor="start" x="336.75" y="-2159.2" font-family="Times,serif" font-size="14.00">&quot;(customer_id = 2L) (type:</text>
<text text-anchor="start" x="384.38" y="-2142.7" font-family="Times,serif" font-size="14.00">boolean)&quot;</text>
<polygon fill="none" stroke="black" points="238,-2112.5 238,-2134.5 332,-2134.5 332,-2112.5 238,-2112.5"/>
<text text-anchor="start" x="253.5" y="-2118.2" font-family="Times,serif" font-size="14.00">OperatorId:</text>
<polygon fill="none" stroke="black" points="334,-2112.5 334,-2134.5 488,-2134.5 488,-2112.5 334,-2112.5"/>
<text text-anchor="start" x="384.75" y="-2118.2" font-family="Times,serif" font-size="14.00">&quot;FIL_10&quot;</text>
<polygon fill="none" stroke="black" points="235,-2109.5 235,-2250.5 491,-2250.5 491,-2109.5 235,-2109.5"/>
</g>
<!-- TS_0&#45;&gt;FIL_10 -->
<g id="edge1" class="edge">
<title>TS_0&#45;&gt;FIL_10</title>
<path fill="none" stroke="black" d="M363,-2291.75C363,-2282.94 363,-2274.23 363,-2265.8"/>
<polygon fill="black" stroke="black" points="366.5,-2266.01 363,-2256.01 359.5,-2266.01 366.5,-2266.01"/>
</g>
<!-- SEL_11 -->
<g id="SEL_11" class="node">
<title>SEL_11</title>
<polygon fill="none" stroke="black" points="188,-2039.5 188,-2061.5 538,-2061.5 538,-2039.5 188,-2039.5"/>
<text text-anchor="start" x="316.88" y="-2046.2" font-family="Times,serif" font-weight="bold" font-size="14.00">Select Operator</text>
<polygon fill="none" stroke="black" points="188,-2015.5 188,-2037.5 314,-2037.5 314,-2015.5 188,-2015.5"/>
<text text-anchor="start" x="237.5" y="-2021.2" font-family="Times,serif" font-size="14.00">Size:</text>
<polygon fill="none" stroke="black" points="316,-2015.5 316,-2037.5 538,-2037.5 538,-2015.5 316,-2015.5"/>
<text text-anchor="start" x="409.75" y="-2021.2" font-family="Times,serif" font-size="14.00"> 2256 </text>
<polygon fill="none" stroke="black" points="188,-1991.5 188,-2013.5 314,-2013.5 314,-1991.5 188,-1991.5"/>
<text text-anchor="start" x="206.75" y="-1997.2" font-family="Times,serif" font-size="14.00">Expected Rows:</text>
<polygon fill="none" stroke="black" points="316,-1991.5 316,-2013.5 538,-2013.5 538,-1991.5 316,-1991.5"/>
<text text-anchor="start" x="419.88" y="-1997.2" font-family="Times,serif" font-size="14.00"> 6 </text>
<polygon fill="none" stroke="black" points="188,-1851.5 188,-1989.5 314,-1989.5 314,-1851.5 188,-1851.5"/>
<text text-anchor="start" x="217.62" y="-1915.45" font-family="Times,serif" font-size="14.00">expressions:</text>
<polygon fill="none" stroke="black" points="316,-1851.5 316,-1989.5 538,-1989.5 538,-1851.5 316,-1851.5"/>
<text text-anchor="start" x="334" y="-1973.2" font-family="Times,serif" font-size="14.00">&quot;PARTITION__SPEC__ID (type:</text>
<text text-anchor="start" x="335.5" y="-1956.7" font-family="Times,serif" font-size="14.00">int), PARTITION__HASH (type:</text>
<text text-anchor="start" x="349.75" y="-1940.2" font-family="Times,serif" font-size="14.00">bigint), FILE__PATH (type:</text>
<text text-anchor="start" x="334.38" y="-1923.7" font-family="Times,serif" font-size="14.00">string), ROW__POSITION (type:</text>
<text text-anchor="start" x="358.38" y="-1907.2" font-family="Times,serif" font-size="14.00">bigint), first_name (type:</text>
<text text-anchor="start" x="360.25" y="-1890.7" font-family="Times,serif" font-size="14.00">string), last_name (type:</text>
<text text-anchor="start" x="358.75" y="-1874.2" font-family="Times,serif" font-size="14.00">string), first_name (type:</text>
<text text-anchor="start" x="406.38" y="-1857.7" font-family="Times,serif" font-size="14.00">string)&quot;</text>
<polygon fill="none" stroke="black" points="188,-1728.5 188,-1849.5 314,-1849.5 314,-1728.5 188,-1728.5"/>
<text text-anchor="start" x="202.62" y="-1783.95" font-family="Times,serif" font-size="14.00">columnExprMap:</text>
<polygon fill="none" stroke="black" points="316,-1728.5 316,-1849.5 538,-1849.5 538,-1728.5 316,-1728.5"/>
<text text-anchor="start" x="318.62" y="-1833.2" font-family="Times,serif" font-size="14.00">{&quot;_col0&quot;: &quot;PARTITION__SPEC__ID&quot;,</text>
<text text-anchor="start" x="333.62" y="-1816.7" font-family="Times,serif" font-size="14.00">&quot;_col1&quot;: &quot;PARTITION__HASH&quot;,</text>
<text text-anchor="start" x="331.75" y="-1800.2" font-family="Times,serif" font-size="14.00">&quot;_col2&quot;: &quot;FILE__PATH&quot;, &quot;_col3&quot;:</text>
<text text-anchor="start" x="340.75" y="-1783.7" font-family="Times,serif" font-size="14.00">&quot;ROW__POSITION&quot;, &quot;_col5&quot;:</text>
<text text-anchor="start" x="365.12" y="-1767.2" font-family="Times,serif" font-size="14.00">&quot;first_name&quot;, &quot;_col6&quot;:</text>
<text text-anchor="start" x="366.62" y="-1750.7" font-family="Times,serif" font-size="14.00">&quot;last_name&quot;, &quot;_col8&quot;:</text>
<text text-anchor="start" x="388.38" y="-1734.2" font-family="Times,serif" font-size="14.00">&quot;first_name&quot;}</text>
<polygon fill="none" stroke="black" points="188,-1671.5 188,-1726.5 314,-1726.5 314,-1671.5 188,-1671.5"/>
<text text-anchor="start" x="190.62" y="-1693.95" font-family="Times,serif" font-size="14.00">outputColumnNames:</text>
<polygon fill="none" stroke="black" points="316,-1671.5 316,-1726.5 538,-1726.5 538,-1671.5 316,-1671.5"/>
<text text-anchor="start" x="352.38" y="-1710.2" font-family="Times,serif" font-size="14.00">[&quot;_col0&quot;, &quot;_col1&quot;, &quot;_col2&quot;,</text>
<text text-anchor="start" x="354.62" y="-1693.7" font-family="Times,serif" font-size="14.00">&quot;_col3&quot;, &quot;_col5&quot;, &quot;_col6&quot;,</text>
<text text-anchor="start" x="403.75" y="-1677.2" font-family="Times,serif" font-size="14.00">&quot;_col8&quot;]</text>
<polygon fill="none" stroke="black" points="188,-1647.5 188,-1669.5 314,-1669.5 314,-1647.5 188,-1647.5"/>
<text text-anchor="start" x="219.5" y="-1653.2" font-family="Times,serif" font-size="14.00">OperatorId:</text>
<polygon fill="none" stroke="black" points="316,-1647.5 316,-1669.5 538,-1669.5 538,-1647.5 316,-1647.5"/>
<text text-anchor="start" x="398.88" y="-1653.2" font-family="Times,serif" font-size="14.00">&quot;SEL_11&quot;</text>
<polygon fill="none" stroke="black" points="185,-1644.5 185,-2064.5 541,-2064.5 541,-1644.5 185,-1644.5"/>
</g>
<!-- FIL_10&#45;&gt;SEL_11 -->
<g id="edge2" class="edge">
<title>FIL_10&#45;&gt;SEL_11</title>
<path fill="none" stroke="black" d="M363,-2105.59C363,-2097.4 363,-2088.77 363,-2079.84"/>
<polygon fill="black" stroke="black" points="366.5,-2079.9 363,-2069.9 359.5,-2079.9 366.5,-2079.9"/>
</g>
<!-- SEL_12 -->
<g id="SEL_12" class="node">
<title>SEL_12</title>
<polygon fill="none" stroke="black" points="37,-1574.5 37,-1596.5 337,-1596.5 337,-1574.5 37,-1574.5"/>
<text text-anchor="start" x="140.88" y="-1581.2" font-family="Times,serif" font-weight="bold" font-size="14.00">Select Operator</text>
<polygon fill="none" stroke="black" points="37,-1550.5 37,-1572.5 163,-1572.5 163,-1550.5 37,-1550.5"/>
<text text-anchor="start" x="86.5" y="-1556.2" font-family="Times,serif" font-size="14.00">Size:</text>
<polygon fill="none" stroke="black" points="165,-1550.5 165,-1572.5 337,-1572.5 337,-1550.5 165,-1550.5"/>
<text text-anchor="start" x="233.75" y="-1556.2" font-family="Times,serif" font-size="14.00"> 2256 </text>
<polygon fill="none" stroke="black" points="37,-1526.5 37,-1548.5 163,-1548.5 163,-1526.5 37,-1526.5"/>
<text text-anchor="start" x="55.75" y="-1532.2" font-family="Times,serif" font-size="14.00">Expected Rows:</text>
<polygon fill="none" stroke="black" points="165,-1526.5 165,-1548.5 337,-1548.5 337,-1526.5 165,-1526.5"/>
<text text-anchor="start" x="243.88" y="-1532.2" font-family="Times,serif" font-size="14.00"> 6 </text>
<polygon fill="none" stroke="black" points="37,-1436.5 37,-1524.5 163,-1524.5 163,-1436.5 37,-1436.5"/>
<text text-anchor="start" x="66.62" y="-1475.45" font-family="Times,serif" font-size="14.00">expressions:</text>
<polygon fill="none" stroke="black" points="165,-1436.5 165,-1524.5 337,-1524.5 337,-1436.5 165,-1436.5"/>
<text text-anchor="start" x="167.75" y="-1508.2" font-family="Times,serif" font-size="14.00">&quot;_col0 (type: int), _col1 (type:</text>
<text text-anchor="start" x="175.25" y="-1491.7" font-family="Times,serif" font-size="14.00">bigint), _col2 (type: string),</text>
<text text-anchor="start" x="179.75" y="-1475.2" font-family="Times,serif" font-size="14.00">_col3 (type: bigint), _col5</text>
<text text-anchor="start" x="179.38" y="-1458.7" font-family="Times,serif" font-size="14.00">(type: string), _col6 (type:</text>
<text text-anchor="start" x="230.38" y="-1442.2" font-family="Times,serif" font-size="14.00">string)&quot;</text>
<polygon fill="none" stroke="black" points="37,-1362.5 37,-1434.5 163,-1434.5 163,-1362.5 37,-1362.5"/>
<text text-anchor="start" x="51.62" y="-1393.45" font-family="Times,serif" font-size="14.00">columnExprMap:</text>
<polygon fill="none" stroke="black" points="165,-1362.5 165,-1434.5 337,-1434.5 337,-1362.5 165,-1362.5"/>
<text text-anchor="start" x="175.25" y="-1418.2" font-family="Times,serif" font-size="14.00">{&quot;_col0&quot;: &quot;_col0&quot;, &quot;_col1&quot;:</text>
<text text-anchor="start" x="178.62" y="-1401.7" font-family="Times,serif" font-size="14.00">&quot;_col1&quot;, &quot;_col2&quot;: &quot;_col2&quot;,</text>
<text text-anchor="start" x="178.62" y="-1385.2" font-family="Times,serif" font-size="14.00">&quot;_col3&quot;: &quot;_col3&quot;, &quot;_col5&quot;:</text>
<text text-anchor="start" x="177.12" y="-1368.7" font-family="Times,serif" font-size="14.00">&quot;_col5&quot;, &quot;_col6&quot;: &quot;_col6&quot;}</text>
<polygon fill="none" stroke="black" points="37,-1321.5 37,-1360.5 163,-1360.5 163,-1321.5 37,-1321.5"/>
<text text-anchor="start" x="39.62" y="-1335.95" font-family="Times,serif" font-size="14.00">outputColumnNames:</text>
<polygon fill="none" stroke="black" points="165,-1321.5 165,-1360.5 337,-1360.5 337,-1321.5 165,-1321.5"/>
<text text-anchor="start" x="176.38" y="-1344.2" font-family="Times,serif" font-size="14.00">[&quot;_col0&quot;, &quot;_col1&quot;, &quot;_col2&quot;,</text>
<text text-anchor="start" x="178.25" y="-1327.7" font-family="Times,serif" font-size="14.00">&quot;_col3&quot;, &quot;_col5&quot;, &quot;_col6&quot;]</text>
<polygon fill="none" stroke="black" points="37,-1297.5 37,-1319.5 163,-1319.5 163,-1297.5 37,-1297.5"/>
<text text-anchor="start" x="68.5" y="-1303.2" font-family="Times,serif" font-size="14.00">OperatorId:</text>
<polygon fill="none" stroke="black" points="165,-1297.5 165,-1319.5 337,-1319.5 337,-1297.5 165,-1297.5"/>
<text text-anchor="start" x="222.88" y="-1303.2" font-family="Times,serif" font-size="14.00">&quot;SEL_12&quot;</text>
<polygon fill="none" stroke="black" points="34,-1294.5 34,-1599.5 340,-1599.5 340,-1294.5 34,-1294.5"/>
</g>
<!-- SEL_11&#45;&gt;SEL_12 -->
<g id="edge3" class="edge">
<title>SEL_11&#45;&gt;SEL_12</title>
<path fill="none" stroke="black" d="M270.62,-1640.66C266.71,-1631.65 262.82,-1622.68 258.96,-1613.8"/>
<polygon fill="black" stroke="black" points="262.26,-1612.6 255.06,-1604.82 255.83,-1615.38 262.26,-1612.6"/>
</g>
<!-- SEL_13 -->
<g id="SEL_13" class="node">
<title>SEL_13</title>
<polygon fill="none" stroke="black" points="377.5,-1533 377.5,-1555 688.5,-1555 688.5,-1533 377.5,-1533"/>
<text text-anchor="start" x="486.88" y="-1539.7" font-family="Times,serif" font-weight="bold" font-size="14.00">Select Operator</text>
<polygon fill="none" stroke="black" points="377.5,-1509 377.5,-1531 503.5,-1531 503.5,-1509 377.5,-1509"/>
<text text-anchor="start" x="427" y="-1514.7" font-family="Times,serif" font-size="14.00">Size:</text>
<polygon fill="none" stroke="black" points="505.5,-1509 505.5,-1531 688.5,-1531 688.5,-1509 505.5,-1509"/>
<text text-anchor="start" x="579.75" y="-1514.7" font-family="Times,serif" font-size="14.00"> 2256 </text>
<polygon fill="none" stroke="black" points="377.5,-1485 377.5,-1507 503.5,-1507 503.5,-1485 377.5,-1485"/>
<text text-anchor="start" x="396.25" y="-1490.7" font-family="Times,serif" font-size="14.00">Expected Rows:</text>
<polygon fill="none" stroke="black" points="505.5,-1485 505.5,-1507 688.5,-1507 688.5,-1485 505.5,-1485"/>
<text text-anchor="start" x="589.88" y="-1490.7" font-family="Times,serif" font-size="14.00"> 6 </text>
<polygon fill="none" stroke="black" points="377.5,-1428 377.5,-1483 503.5,-1483 503.5,-1428 377.5,-1428"/>
<text text-anchor="start" x="407.12" y="-1450.45" font-family="Times,serif" font-size="14.00">expressions:</text>
<polygon fill="none" stroke="black" points="505.5,-1428 505.5,-1483 688.5,-1483 688.5,-1428 505.5,-1428"/>
<text text-anchor="start" x="513" y="-1466.7" font-family="Times,serif" font-size="14.00">&quot;2L (type: bigint), _col8 (type:</text>
<text text-anchor="start" x="528.38" y="-1450.2" font-family="Times,serif" font-size="14.00">string), &#39;Changed2&#39; (type:</text>
<text text-anchor="start" x="576.38" y="-1433.7" font-family="Times,serif" font-size="14.00">string)&quot;</text>
<polygon fill="none" stroke="black" points="377.5,-1387 377.5,-1426 503.5,-1426 503.5,-1387 377.5,-1387"/>
<text text-anchor="start" x="392.12" y="-1401.45" font-family="Times,serif" font-size="14.00">columnExprMap:</text>
<polygon fill="none" stroke="black" points="505.5,-1387 505.5,-1426 688.5,-1426 688.5,-1387 505.5,-1387"/>
<text text-anchor="start" x="528.75" y="-1409.7" font-family="Times,serif" font-size="14.00">{&quot;_col0&quot;: &quot;2L&quot;, &quot;_col1&quot;:</text>
<text text-anchor="start" x="508.5" y="-1393.2" font-family="Times,serif" font-size="14.00">&quot;_col8&quot;, &quot;_col2&quot;: &quot;&#39;Changed2&#39;&quot;}</text>
<polygon fill="none" stroke="black" points="377.5,-1363 377.5,-1385 503.5,-1385 503.5,-1363 377.5,-1363"/>
<text text-anchor="start" x="380.12" y="-1368.7" font-family="Times,serif" font-size="14.00">outputColumnNames:</text>
<polygon fill="none" stroke="black" points="505.5,-1363 505.5,-1385 688.5,-1385 688.5,-1363 505.5,-1363"/>
<text text-anchor="start" x="522" y="-1368.7" font-family="Times,serif" font-size="14.00">[&quot;_col0&quot;, &quot;_col1&quot;, &quot;_col2&quot;]</text>
<polygon fill="none" stroke="black" points="377.5,-1339 377.5,-1361 503.5,-1361 503.5,-1339 377.5,-1339"/>
<text text-anchor="start" x="409" y="-1344.7" font-family="Times,serif" font-size="14.00">OperatorId:</text>
<polygon fill="none" stroke="black" points="505.5,-1339 505.5,-1361 688.5,-1361 688.5,-1339 505.5,-1339"/>
<text text-anchor="start" x="568.88" y="-1344.7" font-family="Times,serif" font-size="14.00">&quot;SEL_13&quot;</text>
<polygon fill="none" stroke="black" points="374.5,-1336 374.5,-1558 691.5,-1558 691.5,-1336 374.5,-1336"/>
</g>
<!-- SEL_11&#45;&gt;SEL_13 -->
<g id="edge5" class="edge">
<title>SEL_11&#45;&gt;SEL_13</title>
<path fill="none" stroke="black" d="M452.23,-1640.66C462.01,-1617.32 471.72,-1594.17 480.83,-1572.43"/>
<polygon fill="black" stroke="black" points="484.03,-1573.85 484.67,-1563.28 477.58,-1571.14 484.03,-1573.85"/>
</g>
<!-- RS_14 -->
<g id="RS_14" class="node">
<title>RS_14</title>
<polygon fill="none" stroke="black" points="37.5,-1224.5 37.5,-1246.5 336.5,-1246.5 336.5,-1224.5 37.5,-1224.5"/>
<text text-anchor="start" x="113.12" y="-1231.2" font-family="Times,serif" font-weight="bold" font-size="14.00">Reduce Output Operator</text>
<polygon fill="none" stroke="black" points="37.5,-1200.5 37.5,-1222.5 142.5,-1222.5 142.5,-1200.5 37.5,-1200.5"/>
<text text-anchor="start" x="76.5" y="-1206.2" font-family="Times,serif" font-size="14.00">Size:</text>
<polygon fill="none" stroke="black" points="144.5,-1200.5 144.5,-1222.5 336.5,-1222.5 336.5,-1200.5 144.5,-1200.5"/>
<text text-anchor="start" x="223.25" y="-1206.2" font-family="Times,serif" font-size="14.00"> 2256 </text>
<polygon fill="none" stroke="black" points="37.5,-1176.5 37.5,-1198.5 142.5,-1198.5 142.5,-1176.5 37.5,-1176.5"/>
<text text-anchor="start" x="45.75" y="-1182.2" font-family="Times,serif" font-size="14.00">Expected Rows:</text>
<polygon fill="none" stroke="black" points="144.5,-1176.5 144.5,-1198.5 336.5,-1198.5 336.5,-1176.5 144.5,-1176.5"/>
<text text-anchor="start" x="233.38" y="-1182.2" font-family="Times,serif" font-size="14.00"> 6 </text>
<polygon fill="none" stroke="black" points="37.5,-1069.5 37.5,-1174.5 142.5,-1174.5 142.5,-1069.5 37.5,-1069.5"/>
<text text-anchor="start" x="41.62" y="-1116.95" font-family="Times,serif" font-size="14.00">columnExprMap:</text>
<polygon fill="none" stroke="black" points="144.5,-1069.5 144.5,-1174.5 336.5,-1174.5 336.5,-1069.5 144.5,-1069.5"/>
<text text-anchor="start" x="147.5" y="-1158.2" font-family="Times,serif" font-size="14.00">{&quot;KEY.reducesinkkey0&quot;: &quot;_col0&quot;,</text>
<text text-anchor="start" x="150.88" y="-1141.7" font-family="Times,serif" font-size="14.00">&quot;KEY.reducesinkkey1&quot;: &quot;_col1&quot;,</text>
<text text-anchor="start" x="150.88" y="-1125.2" font-family="Times,serif" font-size="14.00">&quot;KEY.reducesinkkey2&quot;: &quot;_col2&quot;,</text>
<text text-anchor="start" x="150.88" y="-1108.7" font-family="Times,serif" font-size="14.00">&quot;KEY.reducesinkkey3&quot;: &quot;_col3&quot;,</text>
<text text-anchor="start" x="168.88" y="-1092.2" font-family="Times,serif" font-size="14.00">&quot;VALUE._col0&quot;: &quot;_col5&quot;,</text>
<text text-anchor="start" x="167.38" y="-1075.7" font-family="Times,serif" font-size="14.00">&quot;VALUE._col1&quot;: &quot;_col6&quot;}</text>
<polygon fill="none" stroke="black" points="37.5,-1012.5 37.5,-1067.5 142.5,-1067.5 142.5,-1012.5 37.5,-1012.5"/>
<text text-anchor="start" x="45" y="-1034.95" font-family="Times,serif" font-size="14.00">key expressions:</text>
<polygon fill="none" stroke="black" points="144.5,-1012.5 144.5,-1067.5 336.5,-1067.5 336.5,-1012.5 144.5,-1012.5"/>
<text text-anchor="start" x="157.25" y="-1051.2" font-family="Times,serif" font-size="14.00">&quot;_col0 (type: int), _col1 (type:</text>
<text text-anchor="start" x="164.75" y="-1034.7" font-family="Times,serif" font-size="14.00">bigint), _col2 (type: string),</text>
<text text-anchor="start" x="185" y="-1018.2" font-family="Times,serif" font-size="14.00">_col3 (type: bigint)&quot;</text>
<polygon fill="none" stroke="black" points="37.5,-988.5 37.5,-1010.5 142.5,-1010.5 142.5,-988.5 37.5,-988.5"/>
<text text-anchor="start" x="49.5" y="-994.2" font-family="Times,serif" font-size="14.00">null sort order:</text>
<polygon fill="none" stroke="black" points="144.5,-988.5 144.5,-1010.5 336.5,-1010.5 336.5,-988.5 144.5,-988.5"/>
<text text-anchor="start" x="222.5" y="-994.2" font-family="Times,serif" font-size="14.00">&quot;zzzz&quot;</text>
<polygon fill="none" stroke="black" points="37.5,-964.5 37.5,-986.5 142.5,-986.5 142.5,-964.5 37.5,-964.5"/>
<text text-anchor="start" x="61.88" y="-970.2" font-family="Times,serif" font-size="14.00">sort order:</text>
<polygon fill="none" stroke="black" points="144.5,-964.5 144.5,-986.5 336.5,-986.5 336.5,-964.5 144.5,-964.5"/>
<text text-anchor="start" x="218" y="-970.2" font-family="Times,serif" font-size="14.00">&quot;++++&quot;</text>
<polygon fill="none" stroke="black" points="37.5,-923.5 37.5,-962.5 142.5,-962.5 142.5,-923.5 37.5,-923.5"/>
<text text-anchor="start" x="40.12" y="-937.95" font-family="Times,serif" font-size="14.00">value expressions:</text>
<polygon fill="none" stroke="black" points="144.5,-923.5 144.5,-962.5 336.5,-962.5 336.5,-923.5 144.5,-923.5"/>
<text text-anchor="start" x="166.62" y="-946.2" font-family="Times,serif" font-size="14.00">&quot;_col5 (type: string), _col6</text>
<text text-anchor="start" x="202.25" y="-929.7" font-family="Times,serif" font-size="14.00">(type: string)&quot;</text>
<polygon fill="none" stroke="black" points="37.5,-899.5 37.5,-921.5 142.5,-921.5 142.5,-899.5 37.5,-899.5"/>
<text text-anchor="start" x="58.5" y="-905.2" font-family="Times,serif" font-size="14.00">OperatorId:</text>
<polygon fill="none" stroke="black" points="144.5,-899.5 144.5,-921.5 336.5,-921.5 336.5,-899.5 144.5,-899.5"/>
<text text-anchor="start" x="216.12" y="-905.2" font-family="Times,serif" font-size="14.00">&quot;RS_14&quot;</text>
<polygon fill="none" stroke="black" points="37.5,-875.5 37.5,-897.5 142.5,-897.5 142.5,-875.5 37.5,-875.5"/>
<text text-anchor="start" x="55.88" y="-881.2" font-family="Times,serif" font-size="14.00">outputname:</text>
<polygon fill="none" stroke="black" points="144.5,-875.5 144.5,-897.5 336.5,-897.5 336.5,-875.5 144.5,-875.5"/>
<text text-anchor="start" x="206.75" y="-881.2" font-family="Times,serif" font-size="14.00">&quot;Reducer 2&quot;</text>
<polygon fill="none" stroke="black" points="37.5,-851.5 37.5,-873.5 142.5,-873.5 142.5,-851.5 37.5,-851.5"/>
<text text-anchor="start" x="46.88" y="-857.2" font-family="Times,serif" font-size="14.00">outputOperator:</text>
<polygon fill="none" stroke="black" points="144.5,-851.5 144.5,-873.5 336.5,-873.5 336.5,-851.5 144.5,-851.5"/>
<text text-anchor="start" x="207.88" y="-857.2" font-family="Times,serif" font-size="14.00">[&quot;SEL_16&quot;]</text>
<polygon fill="none" stroke="black" points="34.5,-848.5 34.5,-1249.5 339.5,-1249.5 339.5,-848.5 34.5,-848.5"/>
</g>
<!-- SEL_12&#45;&gt;RS_14 -->
<g id="edge4" class="edge">
<title>SEL_12&#45;&gt;RS_14</title>
<path fill="none" stroke="black" d="M187,-1290.63C187,-1282.11 187,-1273.49 187,-1264.83"/>
<polygon fill="black" stroke="black" points="190.5,-1264.93 187,-1254.93 183.5,-1264.93 190.5,-1264.93"/>
</g>
<!-- SEL_16 -->
<g id="SEL_16" class="node">
<title>SEL_16</title>
<polygon fill="none" stroke="black" points="27,-724 27,-746 347,-746 347,-724 27,-724"/>
<text text-anchor="start" x="140.88" y="-730.7" font-family="Times,serif" font-weight="bold" font-size="14.00">Select Operator</text>
<polygon fill="none" stroke="black" points="27,-700 27,-722 153,-722 153,-700 27,-700"/>
<text text-anchor="start" x="76.5" y="-705.7" font-family="Times,serif" font-size="14.00">Size:</text>
<polygon fill="none" stroke="black" points="155,-700 155,-722 347,-722 347,-700 155,-700"/>
<text text-anchor="start" x="233.75" y="-705.7" font-family="Times,serif" font-size="14.00"> 2256 </text>
<polygon fill="none" stroke="black" points="27,-676 27,-698 153,-698 153,-676 27,-676"/>
<text text-anchor="start" x="45.75" y="-681.7" font-family="Times,serif" font-size="14.00">Expected Rows:</text>
<polygon fill="none" stroke="black" points="155,-676 155,-698 347,-698 347,-676 155,-676"/>
<text text-anchor="start" x="243.88" y="-681.7" font-family="Times,serif" font-size="14.00"> 6 </text>
<polygon fill="none" stroke="black" points="27,-536 27,-674 153,-674 153,-536 27,-536"/>
<text text-anchor="start" x="56.62" y="-599.95" font-family="Times,serif" font-size="14.00">expressions:</text>
<polygon fill="none" stroke="black" points="155,-536 155,-674 347,-674 347,-536 155,-536"/>
<text text-anchor="start" x="160.25" y="-657.7" font-family="Times,serif" font-size="14.00">&quot;KEY.reducesinkkey0 (type: int),</text>
<text text-anchor="start" x="176.38" y="-641.2" font-family="Times,serif" font-size="14.00">KEY.reducesinkkey1 (type:</text>
<text text-anchor="start" x="172.25" y="-624.7" font-family="Times,serif" font-size="14.00">bigint), KEY.reducesinkkey2</text>
<text text-anchor="start" x="213.88" y="-608.2" font-family="Times,serif" font-size="14.00">(type: string),</text>
<text text-anchor="start" x="176.38" y="-591.7" font-family="Times,serif" font-size="14.00">KEY.reducesinkkey3 (type:</text>
<text text-anchor="start" x="182.75" y="-575.2" font-family="Times,serif" font-size="14.00">bigint), 2L (type: bigint),</text>
<text text-anchor="start" x="173" y="-558.7" font-family="Times,serif" font-size="14.00">VALUE._col0 (type: string),</text>
<text text-anchor="start" x="171.88" y="-542.2" font-family="Times,serif" font-size="14.00">VALUE._col1 (type: string)&quot;</text>
<polygon fill="none" stroke="black" points="27,-413 27,-534 153,-534 153,-413 27,-413"/>
<text text-anchor="start" x="41.62" y="-468.45" font-family="Times,serif" font-size="14.00">columnExprMap:</text>
<polygon fill="none" stroke="black" points="155,-413 155,-534 347,-534 347,-413 155,-413"/>
<text text-anchor="start" x="158" y="-517.7" font-family="Times,serif" font-size="14.00">{&quot;_col0&quot;: &quot;KEY.reducesinkkey0&quot;,</text>
<text text-anchor="start" x="161.38" y="-501.2" font-family="Times,serif" font-size="14.00">&quot;_col1&quot;: &quot;KEY.reducesinkkey1&quot;,</text>
<text text-anchor="start" x="161.38" y="-484.7" font-family="Times,serif" font-size="14.00">&quot;_col2&quot;: &quot;KEY.reducesinkkey2&quot;,</text>
<text text-anchor="start" x="161.38" y="-468.2" font-family="Times,serif" font-size="14.00">&quot;_col3&quot;: &quot;KEY.reducesinkkey3&quot;,</text>
<text text-anchor="start" x="186.12" y="-451.7" font-family="Times,serif" font-size="14.00">&quot;_col4&quot;: &quot;2L&quot;, &quot;_col5&quot;:</text>
<text text-anchor="start" x="179.38" y="-435.2" font-family="Times,serif" font-size="14.00">&quot;VALUE._col0&quot;, &quot;_col6&quot;:</text>
<text text-anchor="start" x="202.62" y="-418.7" font-family="Times,serif" font-size="14.00">&quot;VALUE._col1&quot;}</text>
<polygon fill="none" stroke="black" points="27,-356 27,-411 153,-411 153,-356 27,-356"/>
<text text-anchor="start" x="29.62" y="-378.45" font-family="Times,serif" font-size="14.00">outputColumnNames:</text>
<polygon fill="none" stroke="black" points="155,-356 155,-411 347,-411 347,-356 155,-356"/>
<text text-anchor="start" x="176.38" y="-394.7" font-family="Times,serif" font-size="14.00">[&quot;_col0&quot;, &quot;_col1&quot;, &quot;_col2&quot;,</text>
<text text-anchor="start" x="178.62" y="-378.2" font-family="Times,serif" font-size="14.00">&quot;_col3&quot;, &quot;_col4&quot;, &quot;_col5&quot;,</text>
<text text-anchor="start" x="227.75" y="-361.7" font-family="Times,serif" font-size="14.00">&quot;_col6&quot;]</text>
<polygon fill="none" stroke="black" points="27,-332 27,-354 153,-354 153,-332 27,-332"/>
<text text-anchor="start" x="58.5" y="-337.7" font-family="Times,serif" font-size="14.00">OperatorId:</text>
<polygon fill="none" stroke="black" points="155,-332 155,-354 347,-354 347,-332 155,-332"/>
<text text-anchor="start" x="222.88" y="-337.7" font-family="Times,serif" font-size="14.00">&quot;SEL_16&quot;</text>
<polygon fill="none" stroke="black" points="24,-329 24,-749 350,-749 350,-329 24,-329"/>
</g>
<!-- RS_14&#45;&gt;SEL_16 -->
<g id="edge8" class="edge">
<title>RS_14:s&#45;&gt;SEL_16:n</title>
<path fill="none" stroke="black" d="M187,-844C187,-808.06 187,-796.34 187,-765.32"/>
<polygon fill="black" stroke="black" points="190.5,-765.51 187,-755.51 183.5,-765.51 190.5,-765.51"/>
<text text-anchor="middle" x="232.75" y="-813.2" font-family="Times,serif" font-size="14.00">SIMPLE_EDGE</text>
</g>
<!-- FS_15 -->
<g id="FS_15" class="node">
<title>FS_15</title>
<polygon fill="none" stroke="black" points="387.5,-1156 387.5,-1178 678.5,-1178 678.5,-1156 387.5,-1156"/>
<text text-anchor="start" x="469.62" y="-1162.7" font-family="Times,serif" font-weight="bold" font-size="14.00">File Output Operator</text>
<polygon fill="none" stroke="black" points="387.5,-1132 387.5,-1154 481.5,-1154 481.5,-1132 387.5,-1132"/>
<text text-anchor="start" x="421" y="-1137.7" font-family="Times,serif" font-size="14.00">Size:</text>
<polygon fill="none" stroke="black" points="483.5,-1132 483.5,-1154 678.5,-1154 678.5,-1132 483.5,-1132"/>
<text text-anchor="start" x="563.75" y="-1137.7" font-family="Times,serif" font-size="14.00"> 2256 </text>
<polygon fill="none" stroke="black" points="387.5,-1108 387.5,-1130 481.5,-1130 481.5,-1108 387.5,-1108"/>
<text text-anchor="start" x="390.25" y="-1113.7" font-family="Times,serif" font-size="14.00">Expected Rows:</text>
<polygon fill="none" stroke="black" points="483.5,-1108 483.5,-1130 678.5,-1130 678.5,-1108 483.5,-1108"/>
<text text-anchor="start" x="573.88" y="-1113.7" font-family="Times,serif" font-size="14.00"> 6 </text>
<polygon fill="none" stroke="black" points="387.5,-1084 387.5,-1106 481.5,-1106 481.5,-1084 387.5,-1084"/>
<text text-anchor="start" x="400.38" y="-1089.7" font-family="Times,serif" font-size="14.00">compressed:</text>
<polygon fill="none" stroke="black" points="483.5,-1084 483.5,-1106 678.5,-1106 678.5,-1084 483.5,-1084"/>
<text text-anchor="start" x="562.25" y="-1089.7" font-family="Times,serif" font-size="14.00">&quot;false&quot;</text>
<polygon fill="none" stroke="black" points="387.5,-944 387.5,-1082 481.5,-1082 481.5,-944 387.5,-944"/>
<text text-anchor="start" x="419.5" y="-1007.95" font-family="Times,serif" font-size="14.00">table:</text>
<polygon fill="none" stroke="black" points="483.5,-944 483.5,-1082 678.5,-1082 678.5,-944 483.5,-944"/>
<text text-anchor="start" x="492.5" y="-1065.7" font-family="Times,serif" font-size="14.00">{&quot;input format:&quot;: &quot;org.apache.ic</text>
<text text-anchor="start" x="486.5" y="-1049.2" font-family="Times,serif" font-size="14.00">eberg.mr.hive.HiveIcebergInputFo</text>
<text text-anchor="start" x="492.12" y="-1032.7" font-family="Times,serif" font-size="14.00">rmat&quot;, &quot;output format:&quot;: &quot;org.ap</text>
<text text-anchor="start" x="488.75" y="-1016.2" font-family="Times,serif" font-size="14.00">ache.iceberg.mr.hive.HiveIceberg</text>
<text text-anchor="start" x="489.5" y="-999.7" font-family="Times,serif" font-size="14.00">OutputFormat&quot;, &quot;serde:&quot;: &quot;org.ap</text>
<text text-anchor="start" x="488.75" y="-983.2" font-family="Times,serif" font-size="14.00">ache.iceberg.mr.hive.HiveIceberg</text>
<text text-anchor="start" x="532.62" y="-966.7" font-family="Times,serif" font-size="14.00">SerDe&quot;, &quot;name:&quot;:</text>
<text text-anchor="start" x="523.25" y="-950.2" font-family="Times,serif" font-size="14.00">&quot;default.customers&quot;}</text>
<polygon fill="none" stroke="black" points="387.5,-920 387.5,-942 481.5,-942 481.5,-920 387.5,-920"/>
<text text-anchor="start" x="403" y="-925.7" font-family="Times,serif" font-size="14.00">OperatorId:</text>
<polygon fill="none" stroke="black" points="483.5,-920 483.5,-942 678.5,-942 678.5,-920 483.5,-920"/>
<text text-anchor="start" x="557.38" y="-925.7" font-family="Times,serif" font-size="14.00">&quot;FS_15&quot;</text>
<polygon fill="none" stroke="black" points="384.5,-917 384.5,-1181 681.5,-1181 681.5,-917 384.5,-917"/>
</g>
<!-- SEL_13&#45;&gt;FS_15 -->
<g id="edge6" class="edge">
<title>SEL_13&#45;&gt;FS_15</title>
<path fill="none" stroke="black" d="M533,-1332.26C533,-1289.81 533,-1241.01 533,-1196.05"/>
<polygon fill="black" stroke="black" points="536.5,-1196.22 533,-1186.22 529.5,-1196.22 536.5,-1196.22"/>
</g>
<!-- FS_17 -->
<g id="FS_17" class="node">
<title>FS_17</title>
<polygon fill="none" stroke="black" points="41.5,-259 41.5,-281 332.5,-281 332.5,-259 41.5,-259"/>
<text text-anchor="start" x="123.62" y="-265.7" font-family="Times,serif" font-weight="bold" font-size="14.00">File Output Operator</text>
<polygon fill="none" stroke="black" points="41.5,-235 41.5,-257 135.5,-257 135.5,-235 41.5,-235"/>
<text text-anchor="start" x="75" y="-240.7" font-family="Times,serif" font-size="14.00">Size:</text>
<polygon fill="none" stroke="black" points="137.5,-235 137.5,-257 332.5,-257 332.5,-235 137.5,-235"/>
<text text-anchor="start" x="217.75" y="-240.7" font-family="Times,serif" font-size="14.00"> 2256 </text>
<polygon fill="none" stroke="black" points="41.5,-211 41.5,-233 135.5,-233 135.5,-211 41.5,-211"/>
<text text-anchor="start" x="44.25" y="-216.7" font-family="Times,serif" font-size="14.00">Expected Rows:</text>
<polygon fill="none" stroke="black" points="137.5,-211 137.5,-233 332.5,-233 332.5,-211 137.5,-211"/>
<text text-anchor="start" x="227.88" y="-216.7" font-family="Times,serif" font-size="14.00"> 6 </text>
<polygon fill="none" stroke="black" points="41.5,-187 41.5,-209 135.5,-209 135.5,-187 41.5,-187"/>
<text text-anchor="start" x="54.38" y="-192.7" font-family="Times,serif" font-size="14.00">compressed:</text>
<polygon fill="none" stroke="black" points="137.5,-187 137.5,-209 332.5,-209 332.5,-187 137.5,-187"/>
<text text-anchor="start" x="216.25" y="-192.7" font-family="Times,serif" font-size="14.00">&quot;false&quot;</text>
<polygon fill="none" stroke="black" points="41.5,-47 41.5,-185 135.5,-185 135.5,-47 41.5,-47"/>
<text text-anchor="start" x="73.5" y="-110.95" font-family="Times,serif" font-size="14.00">table:</text>
<polygon fill="none" stroke="black" points="137.5,-47 137.5,-185 332.5,-185 332.5,-47 137.5,-47"/>
<text text-anchor="start" x="146.5" y="-168.7" font-family="Times,serif" font-size="14.00">{&quot;input format:&quot;: &quot;org.apache.ic</text>
<text text-anchor="start" x="140.5" y="-152.2" font-family="Times,serif" font-size="14.00">eberg.mr.hive.HiveIcebergInputFo</text>
<text text-anchor="start" x="146.12" y="-135.7" font-family="Times,serif" font-size="14.00">rmat&quot;, &quot;output format:&quot;: &quot;org.ap</text>
<text text-anchor="start" x="142.75" y="-119.2" font-family="Times,serif" font-size="14.00">ache.iceberg.mr.hive.HiveIceberg</text>
<text text-anchor="start" x="143.5" y="-102.7" font-family="Times,serif" font-size="14.00">OutputFormat&quot;, &quot;serde:&quot;: &quot;org.ap</text>
<text text-anchor="start" x="142.75" y="-86.2" font-family="Times,serif" font-size="14.00">ache.iceberg.mr.hive.HiveIceberg</text>
<text text-anchor="start" x="186.62" y="-69.7" font-family="Times,serif" font-size="14.00">SerDe&quot;, &quot;name:&quot;:</text>
<text text-anchor="start" x="177.25" y="-53.2" font-family="Times,serif" font-size="14.00">&quot;default.customers&quot;}</text>
<polygon fill="none" stroke="black" points="41.5,-23 41.5,-45 135.5,-45 135.5,-23 41.5,-23"/>
<text text-anchor="start" x="57" y="-28.7" font-family="Times,serif" font-size="14.00">OperatorId:</text>
<polygon fill="none" stroke="black" points="137.5,-23 137.5,-45 332.5,-45 332.5,-23 137.5,-23"/>
<text text-anchor="start" x="211.38" y="-28.7" font-family="Times,serif" font-size="14.00">&quot;FS_17&quot;</text>
<polygon fill="none" stroke="black" points="38.5,-20 38.5,-284 335.5,-284 335.5,-20 38.5,-20"/>
</g>
<!-- SEL_16&#45;&gt;FS_17 -->
<g id="edge7" class="edge">
<title>SEL_16&#45;&gt;FS_17</title>
<path fill="none" stroke="black" d="M187,-325.23C187,-316.56 187,-307.95 187,-299.46"/>
<polygon fill="black" stroke="black" points="190.5,-299.49 187,-289.49 183.5,-299.49 190.5,-299.49"/>
</g>
</g>
</svg>
